<svg xmlns="http://www.w3.org/2000/svg" viewBox="0 0 4713.67 580.1"><defs><style>.cls-1{opacity:.8}.cls-2{fill:#1d1d1b}.cls-3{fill:none}.cls-4{fill:#fcc200}.cls-5{fill:#00964d}.cls-6{fill:#be3218}.cls-13,.cls-14,.cls-6,.cls-7,.cls-8{opacity:.2;isolation:isolate}.cls-7{fill:#2f363a}.cls-8{fill:#fff}.cls-9{fill:url(#radial-gradient)}.cls-10{fill:url(#radial-gradient-2)}.cls-11{fill:#597dbe}.cls-12{fill:#d93a2b}.cls-13{fill:#2d2b70}.cls-14{fill:#462d25}.cls-15{fill:url(#radial-gradient-3)}.cls-16{opacity:.54}.cls-17{fill:#13110c}</style><radialGradient id="radial-gradient" cx="463.23" cy="239.53" r="177.87" gradientTransform="matrix(1 0 0 -1 -225.03 650.91)" gradientUnits="userSpaceOnUse"><stop offset="0" stop-color="#be3218" stop-opacity=".2"/><stop offset="1" stop-color="#be3218" stop-opacity=".02"/></radialGradient><radialGradient id="radial-gradient-2" cx="462.73" cy="238.41" r="179.31" gradientTransform="matrix(1 0 0 -1 -225.03 650.91)" gradientUnits="userSpaceOnUse"><stop offset="0" stop-color="#2f363a" stop-opacity=".2"/><stop offset="1" stop-color="#2f363a" stop-opacity=".02"/></radialGradient><radialGradient id="radial-gradient-3" cx="221.01" cy="646.9" r="539.88" gradientTransform="matrix(1 0 0 -1 0 779.5)" gradientUnits="userSpaceOnUse"><stop offset="0" stop-color="#fff" stop-opacity=".1"/><stop offset="1" stop-color="#fff" stop-opacity="0"/></radialGradient></defs><title>Asset 2</title><g id="Layer_2" data-name="Layer 2"><g id="Layer_1-2" data-name="Layer 1"><g class="cls-1"><path class="cls-2" d="M2191.29 583.46v-426h56.37v174.95h221.41V157.5h56.37v426h-56.37V382.68h-221.41v200.78zm384-154.29q0-85.71 47.65-127 39.8-34.28 97-34.29 63.63 0 104 41.7t40.39 115.21q0 59.57-17.87 93.71a126.48 126.48 0 0 1-52 53q-34.15 18.88-74.53 18.89-64.8 0-104.75-41.55t-39.89-119.67zm53.75 0q0 59.27 25.86 88.77t65.1 29.49q38.93 0 64.8-29.64t25.86-90.36q0-57.24-26-86.73T2720 311.2q-39.23 0-65.09 29.35T2629 429.17zm278.82 154.29V274.88h47.07v43.88q34-50.84 98.21-50.85 27.89 0 51.28 10t35 26.3q11.62 16.28 16.27 38.65 2.9 14.53 2.91 50.85v189.75h-52.3v-187.7q0-32-6.1-47.8t-21.65-25.28q-15.55-9.44-36.47-9.44-33.42 0-57.68 21.21t-24.26 80.49v168.52zM3211.37 609l50.85 7.55q3.19 23.54 17.72 34.29 19.46 14.53 53.17 14.53 36.32 0 56.08-14.53t26.73-40.68q4.06-16 3.78-67.12-34.29 40.39-85.43 40.39-63.63 0-98.5-45.91t-34.87-110.09q0-44.16 16-81.5t46.34-57.68q30.36-20.33 71.33-20.34 54.62 0 90.07 44.17v-37.2h48.23v266.74q0 72.06-14.67 102.13t-46.49 47.51q-31.82 17.43-78.31 17.43-55.21 0-89.2-24.84T3211.37 609zm43.29-185.38q0 60.73 24.12 88.62t60.44 27.89q36 0 60.44-27.75t24.41-87q0-56.66-25.13-85.43t-60.58-28.77q-34.87 0-59.28 28.33t-24.42 84.14zm431.23 159.84v-426h56.37v211.27l211.53-211.23h76.42l-178.7 172.59 186.54 253.37h-74.38L3812 367.86l-69.74 68v147.6zm355.23-154.29q0-85.71 47.65-127 39.81-34.28 97-34.29 63.63 0 104 41.7t40.39 115.21q0 59.57-17.87 93.71a126.48 126.48 0 0 1-52 53q-34.15 18.88-74.53 18.89-64.8 0-104.75-41.55t-39.89-119.67zm53.75 0q0 59.27 25.86 88.77t65.09 29.49q38.93 0 64.8-29.64t25.86-90.36q0-57.24-26-86.73t-64.65-29.49q-39.23 0-65.09 29.35t-25.87 88.61zm278.81 154.29V274.88h47.07v43.88q34-50.84 98.21-50.85 27.89 0 51.28 10t35 26.3q11.62 16.28 16.27 38.65 2.9 14.53 2.91 50.85v189.75h-52.3v-187.7q0-32-6.1-47.8t-21.65-25.28q-15.55-9.44-36.47-9.44-33.42 0-57.68 21.21T4426 414.93v168.53zM4677.19 609l50.85 7.55q3.19 23.54 17.72 34.29 19.46 14.53 53.17 14.53 36.32 0 56.08-14.53t26.73-40.68q4.06-16 3.78-67.12-34.29 40.39-85.43 40.39-63.63 0-98.5-45.91t-34.87-110.12q0-44.16 16-81.5t46.34-57.68q30.36-20.33 71.33-20.34 54.62 0 90.07 44.17v-37.17h48.23v266.74q0 72.06-14.67 102.13t-46.49 47.51q-31.82 17.43-78.31 17.43-55.21 0-89.2-24.84T4677.19 609zm43.29-185.38q0 60.73 24.12 88.62t60.4 27.93q36 0 60.44-27.75t24.41-87q0-56.66-25.13-85.43t-60.58-28.77q-34.87 0-59.28 28.33t-24.37 84.1z" transform="translate(-225.03 -128.59)"/></g><g id="_Group_" data-name="&lt;Group&gt;"><g id="_Group_2" data-name="&lt;Group&gt;"><path class="cls-3" d="M540 361.66L405.26 128.59H225l148.79 257.18L225 642.95h180.26L540 409.88a48.1 48.1 0 0 0 0-48.22z" transform="translate(-225.03 -128.59)"/><path id="_Path_" data-name="&lt;Path&gt;" class="cls-4" d="M237.69 410.96l-42.72-73.9-102.55 177.3h87.81l58.62-101.39-1.16-2.01z"/><path class="cls-3" d="M540 361.66L405.26 128.59H225l148.79 257.18L225 642.95h180.26L540 409.88a48.1 48.1 0 0 0 0-48.22z" transform="translate(-225.03 -128.59)"/><path class="cls-5" d="M148.76 257.18l46.21 79.88-102.55 177.3H0l148.76-257.18z"/><path class="cls-3" d="M540 361.66L405.26 128.59H225l148.79 257.18L225 642.95h180.26L540 409.88a48.1 48.1 0 0 0 0-48.22z" transform="translate(-225.03 -128.59)"/><path class="cls-6" d="M180.23 510.34H94.75l-2.33 4.02h87.81l58.62-101.39-1.16-2.01-57.46 99.38z"/><path class="cls-3" d="M540 361.66L405.26 128.59H225l148.79 257.18L225 642.95h180.26L540 409.88a48.1 48.1 0 0 0 0-48.22z" transform="translate(-225.03 -128.59)"/><path class="cls-7" d="M2.33 510.34L0 514.36h92.42l2.33-4.02H2.33z"/><path class="cls-3" d="M540 361.66L405.26 128.59H225l148.79 257.18L225 642.95h180.26L540 409.88a48.1 48.1 0 0 0 0-48.22z" transform="translate(-225.03 -128.59)"/><path class="cls-8" d="M0 514.36h2.33l147.6-255.17-1.17-2.01L0 514.36z"/><path class="cls-3" d="M540 361.66L405.26 128.59H225l148.79 257.18L225 642.95h180.26L540 409.88a48.1 48.1 0 0 0 0-48.22z" transform="translate(-225.03 -128.59)"/><path id="_Path_2" data-name="&lt;Path&gt;" class="cls-9" d="M238.85 412.97l-43.88-75.91-10.76 18.61 54.64 57.3z"/><path class="cls-3" d="M540 361.66L405.26 128.59H225l148.79 257.18L225 642.95h180.26L540 409.88a48.1 48.1 0 0 0 0-48.22z" transform="translate(-225.03 -128.59)"/><path id="_Path_3" data-name="&lt;Path&gt;" class="cls-10" d="M184.21 355.67l10.76-18.61-46.21-79.88-22.06 38.17 57.51 60.32z"/><path class="cls-3" d="M540 361.66L405.26 128.59H225l148.79 257.18L225 642.95h180.26L540 409.88a48.1 48.1 0 0 0 0-48.22z" transform="translate(-225.03 -128.59)"/><g id="_Group_3" data-name="&lt;Group&gt;"><g id="_Group_4" data-name="&lt;Group&gt;"><path id="_Path_4" data-name="&lt;Path&gt;" class="cls-11" d="M92.42 0H0l238.85 412.97 46.18-79.84.04-.08L92.42 0z"/></g></g><path class="cls-3" d="M540 361.66L405.26 128.59H225l148.79 257.18L225 642.95h180.26L540 409.88a48.1 48.1 0 0 0 0-48.22z" transform="translate(-225.03 -128.59)"/><path class="cls-12" d="M540 409.88a48.1 48.1 0 0 0 0-48.22L405.26 128.59h-87.8l192.64 333z" transform="translate(-225.03 -128.59)"/><path class="cls-3" d="M540 361.66L405.26 128.59H225l148.79 257.18L225 642.95h180.26L540 409.88a48.1 48.1 0 0 0 0-48.22z" transform="translate(-225.03 -128.59)"/><path class="cls-13" d="M285.07 333.05l-1.17-1.97-45.05 77.87L2.33 0H0l238.85 412.97 46.18-79.84.04-.08z"/><path class="cls-3" d="M540 361.66L405.26 128.59H225l148.79 257.18L225 642.95h180.26L540 409.88a48.1 48.1 0 0 0 0-48.22z" transform="translate(-225.03 -128.59)"/><path class="cls-8" d="M405.26 132.61L540 365.68a48 48 0 0 1 6.35 22.1 48.1 48.1 0 0 0-6.35-26.12L405.26 128.59H225l2.33 4z" transform="translate(-225.03 -128.59)"/><path class="cls-3" d="M540 361.66L405.26 128.59H225l148.79 257.18L225 642.95h180.26L540 409.88a48.1 48.1 0 0 0 0-48.22z" transform="translate(-225.03 -128.59)"/><path id="_Path_5" data-name="&lt;Path&gt;" class="cls-14" d="M510.1 461.64l29.9-51.76a48.1 48.1 0 0 0 6.35-26.12 48 48 0 0 1-6.35 22.1l-31.1 53.81z" transform="translate(-225.03 -128.59)"/><path class="cls-3" d="M540 361.66L405.26 128.59H225l148.79 257.18L225 642.95h180.26L540 409.88a48.1 48.1 0 0 0 0-48.22z" transform="translate(-225.03 -128.59)"/><path id="_Path_6" data-name="&lt;Path&gt;" class="cls-15" d="M540 361.66L405.26 128.59H225l148.79 257.18L225 642.95h180.26L540 409.88a48.1 48.1 0 0 0 0-48.22z" transform="translate(-225.03 -128.59)"/></g></g><g id="Layer_4" data-name="Layer 4"><g id="_Group_5" data-name="&lt;Group&gt;" class="cls-16"><path id="_Compound_Path_" data-name="&lt;Compound Path&gt;" class="cls-17" d="M1199.33 173.5h123c125.21 0 203.81 83.1 203.81 199.72 0 117.14-78.64 199.72-203.81 199.72h-123V173.5zm125.09 338.91c87.16 0 141.17-48.38 141.17-139.2 0-90.29-54-139.2-141.17-139.2h-64.58v278.4z" transform="translate(-225.03 -128.59)"/><path id="_Path_7" data-name="&lt;Path&gt;" class="cls-3" d="M512.2 34.46h1234.58v435.76H512.2z"/><path id="_Path_8" data-name="&lt;Path&gt;" class="cls-17" d="M1148.82 355.09H957.26v59.31h135.06c-4.46 30.26-14.95 53.85-30.66 69.6-20 20-51.28 42-106.13 42-84.59 0-150.73-68.19-150.73-152.78s66.14-152.78 150.73-152.78c45.61 0 79 18 103.55 41l40.51-40.44c-34.36-32.83-80-57.95-144.06-57.95-115.85 0-213.26 94.31-213.26 210.2s97.41 210.2 213.26 210.2c62.53 0 109.7-20.49 146.63-59 37.93-37.93 49.75-91.26 49.75-134.34a178.46 178.46 0 0 0-3.09-35.02z" transform="translate(-225.03 -128.59)"/><path id="_Path_9" data-name="&lt;Path&gt;" class="cls-17" d="M1971.87 355.09h-191.56v59.31h135.06c-4.46 30.26-14.95 53.85-30.66 69.6-20 20-51.28 42-106.13 42-84.59 0-150.73-68.19-150.73-152.78s66.15-152.74 150.73-152.74c45.61 0 79 18 103.55 41l40.51-40.48c-34.36-32.83-80-57.95-144.06-57.95-115.85 0-213.26 94.31-213.26 210.2s97.41 210.2 213.26 210.2c62.53 0 109.7-20.49 146.63-59 37.93-37.93 49.75-91.26 49.75-134.34a178.52 178.52 0 0 0-3.09-35.02z" transform="translate(-225.03 -128.59)"/></g></g></g></g></svg>