<svg xmlns="http://www.w3.org/2000/svg" xmlns:xlink="http://www.w3.org/1999/xlink" viewBox="0 0 4713.67 580.1"><defs><style>.cls-1{opacity:0.8;}.cls-2{fill:#1d1d1b;}.cls-3{fill:none;}.cls-4{fill:#fcc200;}.cls-5{fill:#00964d;}.cls-6{fill:#be3218;}.cls-13,.cls-14,.cls-6,.cls-7,.cls-8{opacity:0.2;isolation:isolate;}.cls-7{fill:#2f363a;}.cls-8{fill:#fff;}.cls-9{fill:url(#radial-gradient);}.cls-10{fill:url(#radial-gradient-2);}.cls-11{fill:#597dbe;}.cls-12{fill:#d93a2b;}.cls-13{fill:#2d2b70;}.cls-14{fill:#462d25;}.cls-15{fill:url(#radial-gradient-3);}.cls-16{opacity:0.54;}.cls-17{fill:#13110c;}</style><radialGradient id="radial-gradient" cx="463.23" cy="239.53" r="177.87" gradientTransform="matrix(1, 0, 0, -1, -225.03, 650.91)" gradientUnits="userSpaceOnUse"><stop offset="0" stop-color="#be3218" stop-opacity="0.2"/><stop offset="1" stop-color="#be3218" stop-opacity="0.02"/></radialGradient><radialGradient id="radial-gradient-2" cx="462.73" cy="238.41" r="179.31" gradientTransform="matrix(1, 0, 0, -1, -225.03, 650.91)" gradientUnits="userSpaceOnUse"><stop offset="0" stop-color="#2f363a" stop-opacity="0.2"/><stop offset="1" stop-color="#2f363a" stop-opacity="0.02"/></radialGradient><radialGradient id="radial-gradient-3" cx="221.01" cy="646.9" r="539.88" gradientTransform="matrix(1, 0, 0, -1, 0, 779.5)" gradientUnits="userSpaceOnUse"><stop offset="0" stop-color="#fff" stop-opacity="0.1"/><stop offset="1" stop-color="#fff" stop-opacity="0"/></radialGradient></defs><title>Asset 2</title><g id="Layer_2" data-name="Layer 2"><g id="Layer_1-2" data-name="Layer 1"><g class="cls-1"><path class="cls-2" d="M2191.29,583.46v-426h56.37V332.41h221.41V157.5h56.37v426h-56.37V382.68H2247.66V583.46Z" transform="translate(-225.03 -128.59)"/><path class="cls-2" d="M2575.29,429.17q0-85.71,47.65-127,39.8-34.28,97-34.29,63.63,0,104,41.7t40.39,115.21q0,59.57-17.87,93.71a126.48,126.48,0,0,1-52,53q-34.15,18.88-74.53,18.89-64.8,0-104.75-41.55T2575.29,429.17Zm53.75,0q0,59.27,25.86,88.77T2720,547.43q38.93,0,64.8-29.64t25.86-90.36q0-57.24-26-86.73T2720,311.2q-39.23,0-65.09,29.35T2629,429.17Z" transform="translate(-225.03 -128.59)"/><path class="cls-2" d="M2907.86,583.46V274.88h47.07v43.88q34-50.84,98.21-50.85,27.89,0,51.28,10t35,26.3q11.62,16.28,16.27,38.65,2.9,14.53,2.91,50.85V583.46h-52.3V395.76q0-32-6.1-47.8t-21.65-25.28q-15.55-9.44-36.47-9.44-33.42,0-57.68,21.21t-24.26,80.49V583.46Z" transform="translate(-225.03 -128.59)"/><path class="cls-2" d="M3211.37,609l50.85,7.55q3.19,23.54,17.72,34.29,19.46,14.53,53.17,14.53,36.32,0,56.08-14.53t26.73-40.68q4.06-16,3.78-67.12-34.29,40.39-85.43,40.39-63.63,0-98.5-45.91T3200.9,427.43q0-44.16,16-81.5t46.34-57.68q30.36-20.33,71.33-20.34,54.62,0,90.07,44.17V274.88h48.23V541.62q0,72.06-14.67,102.13t-46.49,47.51q-31.82,17.43-78.31,17.43-55.21,0-89.2-24.84T3211.37,609Zm43.29-185.38q0,60.73,24.12,88.62t60.44,27.89q36,0,60.44-27.75t24.41-87q0-56.66-25.13-85.43t-60.58-28.77q-34.87,0-59.28,28.33T3254.66,423.65Z" transform="translate(-225.03 -128.59)"/><path class="cls-2" d="M3685.89,583.46v-426h56.37V368.73L3953.79,157.5h76.42l-178.7,172.59,186.54,253.37h-74.38L3812,367.86l-69.74,68V583.46Z" transform="translate(-225.03 -128.59)"/><path class="cls-2" d="M4041.12,429.17q0-85.71,47.65-127,39.81-34.28,97-34.29,63.63,0,104,41.7t40.39,115.21q0,59.57-17.87,93.71a126.48,126.48,0,0,1-52,53q-34.15,18.88-74.53,18.89-64.8,0-104.75-41.55T4041.12,429.17Zm53.75,0q0,59.27,25.86,88.77t65.09,29.49q38.93,0,64.8-29.64t25.86-90.36q0-57.24-26-86.73t-64.65-29.49q-39.23,0-65.09,29.35T4094.87,429.17Z" transform="translate(-225.03 -128.59)"/><path class="cls-2" d="M4373.68,583.46V274.88h47.07v43.88q34-50.84,98.21-50.85,27.89,0,51.28,10t35,26.3q11.62,16.28,16.27,38.65,2.9,14.53,2.91,50.85V583.46h-52.3V395.76q0-32-6.1-47.8t-21.65-25.28q-15.55-9.44-36.47-9.44-33.42,0-57.68,21.21T4426,414.93V583.46Z" transform="translate(-225.03 -128.59)"/><path class="cls-2" d="M4677.19,609l50.85,7.55q3.19,23.54,17.72,34.29,19.46,14.53,53.17,14.53,36.32,0,56.08-14.53t26.73-40.68q4.06-16,3.78-67.12-34.29,40.39-85.43,40.39-63.63,0-98.5-45.91t-34.87-110.12q0-44.16,16-81.5t46.34-57.68q30.36-20.33,71.33-20.34,54.62,0,90.07,44.17V274.88h48.23V541.62q0,72.06-14.67,102.13t-46.49,47.51q-31.82,17.43-78.31,17.43-55.21,0-89.2-24.84T4677.19,609Zm43.29-185.38q0,60.73,24.12,88.62T4805,540.17q36,0,60.44-27.75t24.41-87q0-56.66-25.13-85.43t-60.58-28.77q-34.87,0-59.28,28.33T4720.49,423.65Z" transform="translate(-225.03 -128.59)"/></g><g id="_Group_" data-name="&lt;Group&gt;"><g id="_Group_2" data-name="&lt;Group&gt;"><path class="cls-3" d="M540,361.66,405.26,128.59H225L373.79,385.77,225,642.95H405.26L540,409.88A48.1,48.1,0,0,0,540,361.66Z" transform="translate(-225.03 -128.59)"/><polygon id="_Path_" data-name="&lt;Path&gt;" class="cls-4" points="237.69 410.96 194.97 337.06 92.42 514.36 180.23 514.36 238.85 412.97 237.69 410.96"/><path class="cls-3" d="M540,361.66,405.26,128.59H225L373.79,385.77,225,642.95H405.26L540,409.88A48.1,48.1,0,0,0,540,361.66Z" transform="translate(-225.03 -128.59)"/><polygon class="cls-5" points="148.76 257.18 194.97 337.06 92.42 514.36 0 514.36 148.76 257.18"/><path class="cls-3" d="M540,361.66,405.26,128.59H225L373.79,385.77,225,642.95H405.26L540,409.88A48.1,48.1,0,0,0,540,361.66Z" transform="translate(-225.03 -128.59)"/><polygon class="cls-6" points="180.23 510.34 94.75 510.34 92.42 514.36 180.23 514.36 238.85 412.97 237.69 410.96 180.23 510.34"/><path class="cls-3" d="M540,361.66,405.26,128.59H225L373.79,385.77,225,642.95H405.26L540,409.88A48.1,48.1,0,0,0,540,361.66Z" transform="translate(-225.03 -128.59)"/><polygon class="cls-7" points="2.33 510.34 0 514.36 92.42 514.36 94.75 510.34 2.33 510.34"/><path class="cls-3" d="M540,361.66,405.26,128.59H225L373.79,385.77,225,642.95H405.26L540,409.88A48.1,48.1,0,0,0,540,361.66Z" transform="translate(-225.03 -128.59)"/><polygon class="cls-8" points="0 514.36 2.33 514.36 149.93 259.19 148.76 257.18 0 514.36"/><path class="cls-3" d="M540,361.66,405.26,128.59H225L373.79,385.77,225,642.95H405.26L540,409.88A48.1,48.1,0,0,0,540,361.66Z" transform="translate(-225.03 -128.59)"/><polygon id="_Path_2" data-name="&lt;Path&gt;" class="cls-9" points="238.85 412.97 238.85 412.97 194.97 337.06 184.21 355.67 238.85 412.97"/><path class="cls-3" d="M540,361.66,405.26,128.59H225L373.79,385.77,225,642.95H405.26L540,409.88A48.1,48.1,0,0,0,540,361.66Z" transform="translate(-225.03 -128.59)"/><polygon id="_Path_3" data-name="&lt;Path&gt;" class="cls-10" points="184.21 355.67 194.97 337.06 148.76 257.18 126.7 295.35 184.21 355.67"/><path class="cls-3" d="M540,361.66,405.26,128.59H225L373.79,385.77,225,642.95H405.26L540,409.88A48.1,48.1,0,0,0,540,361.66Z" transform="translate(-225.03 -128.59)"/><g id="_Group_3" data-name="&lt;Group&gt;"><g id="_Group_4" data-name="&lt;Group&gt;"><polygon id="_Path_4" data-name="&lt;Path&gt;" class="cls-11" points="92.42 0 0 0 238.85 412.97 285.03 333.13 285.07 333.05 92.42 0"/></g></g><path class="cls-3" d="M540,361.66,405.26,128.59H225L373.79,385.77,225,642.95H405.26L540,409.88A48.1,48.1,0,0,0,540,361.66Z" transform="translate(-225.03 -128.59)"/><path class="cls-12" d="M540,409.88a48.1,48.1,0,0,0,0-48.22L405.26,128.59h-87.8l192.64,333Z" transform="translate(-225.03 -128.59)"/><path class="cls-3" d="M540,361.66,405.26,128.59H225L373.79,385.77,225,642.95H405.26L540,409.88A48.1,48.1,0,0,0,540,361.66Z" transform="translate(-225.03 -128.59)"/><polygon class="cls-13" points="285.07 333.05 283.9 331.08 238.85 408.95 2.33 0 0 0 238.85 412.97 285.03 333.13 285.07 333.05"/><path class="cls-3" d="M540,361.66,405.26,128.59H225L373.79,385.77,225,642.95H405.26L540,409.88A48.1,48.1,0,0,0,540,361.66Z" transform="translate(-225.03 -128.59)"/><path class="cls-8" d="M405.26,132.61,540,365.68a48,48,0,0,1,6.35,22.1A48.1,48.1,0,0,0,540,361.66L405.26,128.59H225l2.33,4Z" transform="translate(-225.03 -128.59)"/><path class="cls-3" d="M540,361.66,405.26,128.59H225L373.79,385.77,225,642.95H405.26L540,409.88A48.1,48.1,0,0,0,540,361.66Z" transform="translate(-225.03 -128.59)"/><path id="_Path_5" data-name="&lt;Path&gt;" class="cls-14" d="M510.1,461.64,540,409.88a48.1,48.1,0,0,0,6.35-26.12,48,48,0,0,1-6.35,22.1l-31.1,53.81Z" transform="translate(-225.03 -128.59)"/><path class="cls-3" d="M540,361.66,405.26,128.59H225L373.79,385.77,225,642.95H405.26L540,409.88A48.1,48.1,0,0,0,540,361.66Z" transform="translate(-225.03 -128.59)"/><path id="_Path_6" data-name="&lt;Path&gt;" class="cls-15" d="M540,361.66,405.26,128.59H225L373.79,385.77,225,642.95H405.26L540,409.88A48.1,48.1,0,0,0,540,361.66Z" transform="translate(-225.03 -128.59)"/></g></g><g id="Layer_4" data-name="Layer 4"><g id="_Group_5" data-name="&lt;Group&gt;" class="cls-16"><path id="_Compound_Path_" data-name="&lt;Compound Path&gt;" class="cls-17" d="M1199.33,173.5h123c125.21,0,203.81,83.1,203.81,199.72,0,117.14-78.64,199.72-203.81,199.72h-123V173.5Zm125.09,338.91c87.16,0,141.17-48.38,141.17-139.2,0-90.29-54-139.2-141.17-139.2h-64.58v278.4Z" transform="translate(-225.03 -128.59)"/><rect id="_Path_7" data-name="&lt;Path&gt;" class="cls-3" x="512.2" y="34.46" width="1234.58" height="435.76"/><path id="_Path_8" data-name="&lt;Path&gt;" class="cls-17" d="M1148.82,355.09H957.26v59.31h135.06c-4.46,30.26-14.95,53.85-30.66,69.6-20,20-51.28,42-106.13,42-84.59,0-150.73-68.19-150.73-152.78s66.14-152.78,150.73-152.78c45.61,0,79,18,103.55,41L1099.59,221c-34.36-32.83-80-57.95-144.06-57.95-115.85,0-213.26,94.31-213.26,210.2s97.41,210.2,213.26,210.2c62.53,0,109.7-20.49,146.63-59,37.93-37.93,49.75-91.26,49.75-134.34A178.46,178.46,0,0,0,1148.82,355.09Z" transform="translate(-225.03 -128.59)"/><path id="_Path_9" data-name="&lt;Path&gt;" class="cls-17" d="M1971.87,355.09H1780.31v59.31h135.06c-4.46,30.26-14.95,53.85-30.66,69.6-20,20-51.28,42-106.13,42-84.59,0-150.73-68.19-150.73-152.78S1694,220.48,1778.58,220.48c45.61,0,79,18,103.55,41L1922.64,221c-34.36-32.83-80-57.95-144.06-57.95-115.85,0-213.26,94.31-213.26,210.2s97.41,210.2,213.26,210.2c62.53,0,109.7-20.49,146.63-59,37.93-37.93,49.75-91.26,49.75-134.34A178.52,178.52,0,0,0,1971.87,355.09Z" transform="translate(-225.03 -128.59)"/></g></g></g></g></svg>